<svg width="576" height="580" viewBox="0 0 576 580" fill="none" xmlns="http://www.w3.org/2000/svg">
<g clip-path="url(#clip0)">
<path d="M271.555 4.84019L253.93 15.2124L36.7796 143L19.1541 153.372C10.6016 158.419 4.25437 166.918 1.50484 177.006C-1.24469 187.093 -0.171958 197.945 4.4877 207.181L166.194 526.83C170.873 536.054 178.753 542.9 188.106 545.865C197.459 548.831 207.521 547.674 216.084 542.648L216.129 542.622L468.439 394.143L468.485 394.116C477.037 389.07 483.385 380.57 486.134 370.483C488.884 360.395 487.811 349.544 483.151 340.308L321.445 20.6587C316.766 11.4345 308.886 4.58864 299.533 1.62312C290.18 -1.3424 280.118 -0.185434 271.555 4.84019V4.84019Z" fill="#F2F2F2"/>
<path d="M276.624 14.8606L255.748 27.1458L45.0987 151.108L24.2228 163.393C18.1324 166.987 13.6123 173.039 11.6543 180.223C9.69628 187.406 10.4602 195.134 13.7785 201.711L175.485 521.36C178.817 527.929 184.429 532.804 191.089 534.916C197.749 537.028 204.915 536.204 211.012 532.625L211.058 532.598L463.368 384.119L463.414 384.093C469.504 380.499 474.024 374.446 475.982 367.263C477.94 360.079 477.176 352.351 473.858 345.775L312.151 26.1255C308.819 19.5567 303.208 14.6817 296.547 12.5698C289.887 10.458 282.722 11.2818 276.624 14.8606V14.8606Z" fill="white"/>
<path d="M280.105 114.08L186.003 169.457C184.577 170.296 182.901 170.489 181.343 169.995C179.785 169.501 178.473 168.36 177.695 166.823C176.917 165.285 176.737 163.477 177.195 161.797C177.653 160.116 178.712 158.701 180.137 157.862L274.239 102.485C275.665 101.646 277.341 101.452 278.899 101.946C280.457 102.44 281.769 103.582 282.547 105.119C283.325 106.657 283.505 108.465 283.046 110.145C282.588 111.826 281.53 113.241 280.105 114.08H280.105Z" fill="#F2F2F2"/>
<path d="M312.175 120.598L195.901 189.023C194.475 189.862 192.799 190.055 191.241 189.561C189.683 189.067 188.371 187.926 187.593 186.389C186.815 184.851 186.635 183.043 187.094 181.363C187.552 179.682 188.61 178.267 190.035 177.428L306.31 109.003C307.016 108.588 307.79 108.326 308.59 108.234C309.39 108.142 310.198 108.22 310.97 108.465C311.741 108.709 312.46 109.115 313.086 109.66C313.712 110.204 314.233 110.876 314.618 111.637C315.003 112.399 315.245 113.234 315.331 114.097C315.417 114.959 315.344 115.831 315.117 116.663C314.89 117.495 314.514 118.271 314.009 118.946C313.504 119.621 312.881 120.183 312.175 120.598H312.175Z" fill="#F2F2F2"/>
<path d="M147.317 146.405L60.5601 197.46C59.8772 197.862 59.3703 198.54 59.1508 199.345C58.9314 200.15 59.0174 201.016 59.3899 201.753L96.333 274.78C96.7059 275.516 97.3346 276.063 98.0811 276.3C98.8276 276.536 99.6307 276.444 100.314 276.042L187.07 224.988C187.753 224.585 188.26 223.907 188.48 223.102C188.699 222.297 188.613 221.431 188.241 220.694L151.297 147.668C150.925 146.931 150.296 146.384 149.549 146.148C148.803 145.911 148 146.004 147.317 146.405V146.405Z" fill="#F2F2F2"/>
<path d="M326.796 206.739L199.158 281.85C198.452 282.266 197.678 282.527 196.878 282.62C196.078 282.712 195.27 282.634 194.498 282.389C193.727 282.145 193.008 281.738 192.382 281.194C191.756 280.65 191.235 279.978 190.85 279.216C190.465 278.455 190.223 277.619 190.137 276.757C190.051 275.895 190.124 275.023 190.351 274.19C190.578 273.358 190.954 272.583 191.459 271.908C191.964 271.232 192.587 270.671 193.293 270.256L320.93 195.144C322.356 194.305 324.032 194.111 325.59 194.605C327.148 195.099 328.46 196.241 329.238 197.778C330.016 199.316 330.196 201.124 329.738 202.804C329.28 204.484 328.221 205.9 326.796 206.739H326.796Z" fill="#F2F2F2"/>
<path d="M358.866 213.257L209.056 301.416C207.631 302.255 205.955 302.449 204.397 301.955C202.839 301.461 201.526 300.32 200.748 298.782C199.971 297.245 199.791 295.437 200.249 293.756C200.707 292.076 201.765 290.661 203.191 289.822L353.001 201.662C354.426 200.823 356.103 200.629 357.661 201.123C359.219 201.617 360.531 202.759 361.309 204.296C362.087 205.834 362.266 207.642 361.808 209.322C361.35 211.002 360.292 212.418 358.867 213.257H358.866Z" fill="#F2F2F2"/>
<path d="M150.548 343.364C164.895 343.364 176.526 330.82 176.526 315.346C176.526 299.872 164.895 287.328 150.548 287.328C136.201 287.328 124.57 299.872 124.57 315.346C124.57 330.82 136.201 343.364 150.548 343.364Z" fill="#F2F2F2"/>
<path d="M539.23 136.549H251.703C241.954 136.561 232.608 140.743 225.715 148.178C218.821 155.613 214.944 165.693 214.933 176.208V540.342C214.944 550.856 218.821 560.937 225.715 568.371C232.608 575.806 241.954 579.988 251.703 580H539.23C548.979 579.988 558.325 575.806 565.218 568.371C572.112 560.937 575.989 550.856 576 540.342V176.208C575.989 165.693 572.112 155.613 565.218 148.178C558.325 140.743 548.979 136.561 539.23 136.549V136.549Z" fill="#E6E6E6"/>
<path d="M539.23 147.966H251.703C244.761 147.975 238.105 150.953 233.196 156.247C228.287 161.542 225.526 168.72 225.518 176.208V540.342C225.526 547.829 228.287 555.008 233.196 560.302C238.105 565.597 244.761 568.575 251.703 568.583H539.23C546.173 568.575 552.828 565.597 557.737 560.302C562.646 555.008 565.407 547.829 565.415 540.342V176.208C565.407 168.72 562.646 161.542 557.737 156.247C552.828 150.953 546.173 147.975 539.23 147.966V147.966Z" fill="white"/>
<path d="M498.224 236.862H391.026C389.402 236.862 387.845 236.166 386.696 234.928C385.548 233.689 384.903 232.01 384.903 230.258C384.903 228.507 385.548 226.827 386.696 225.588C387.845 224.35 389.402 223.654 391.026 223.654H498.224C499.029 223.653 499.826 223.823 500.569 224.155C501.313 224.486 501.989 224.972 502.558 225.586C503.127 226.199 503.579 226.927 503.887 227.729C504.195 228.531 504.354 229.39 504.354 230.258C504.354 231.126 504.195 231.985 503.887 232.787C503.579 233.589 503.127 234.317 502.558 234.931C501.989 235.544 501.313 236.03 500.569 236.362C499.826 236.693 499.029 236.863 498.224 236.862Z" fill="#6C63FF"/>
<path d="M523.482 259.151H391.026C389.402 259.151 387.845 258.455 386.696 257.217C385.548 255.978 384.903 254.299 384.903 252.547C384.903 250.795 385.548 249.116 386.696 247.877C387.845 246.639 389.402 245.943 391.026 245.943H523.482C525.106 245.943 526.664 246.639 527.812 247.877C528.96 249.116 529.605 250.795 529.605 252.547C529.605 254.299 528.96 255.978 527.812 257.217C526.664 258.455 525.106 259.151 523.482 259.151V259.151Z" fill="#6C63FF"/>
<path d="M367.303 196.642H268.473C267.694 196.643 266.948 196.976 266.398 197.569C265.848 198.163 265.539 198.968 265.539 199.807V282.996C265.539 283.835 265.848 284.64 266.398 285.233C266.948 285.827 267.694 286.16 268.473 286.16H367.303C368.081 286.16 368.827 285.827 369.377 285.233C369.927 284.64 370.237 283.835 370.237 282.996V199.807C370.237 198.968 369.927 198.163 369.377 197.569C368.827 196.976 368.081 196.643 367.303 196.642V196.642Z" fill="#E6E6E6"/>
<path d="M295.583 247.726C295.623 254.749 293.223 261.534 288.856 266.742C284.534 271.858 278.101 275.25 271.609 273.846C265.631 272.554 260.773 266.919 261.379 260.101C261.479 258.625 261.877 257.189 262.545 255.896C263.212 254.602 264.133 253.481 265.244 252.61C266.354 251.74 267.627 251.141 268.975 250.856C270.322 250.57 271.71 250.605 273.043 250.958C278.722 252.548 280.985 261.375 276.253 265.519C275.117 266.513 273.486 264.774 274.632 263.77C277.76 261.031 276.794 255.039 273.018 253.536C268.622 251.787 263.964 255.55 263.648 260.397C263.273 266.144 267.355 270.473 272.361 271.492C277.777 272.594 283.146 269.604 286.816 265.478C291.021 260.687 293.342 254.324 293.29 247.726C293.301 247.406 293.426 247.102 293.64 246.88C293.854 246.657 294.139 246.532 294.436 246.532C294.734 246.532 295.019 246.657 295.233 246.88C295.447 247.102 295.572 247.406 295.583 247.726V247.726Z" fill="#2F2E41"/>
<path d="M317.965 263.442C340.548 263.442 358.856 243.697 358.856 219.339C358.856 194.982 340.548 175.236 317.965 175.236C295.381 175.236 277.073 194.982 277.073 219.339C277.073 243.697 295.381 263.442 317.965 263.442Z" fill="#6C63FF"/>
<path d="M315.872 238.157L315.83 236.509C318.673 236.424 321.179 236.232 323.062 234.748C323.596 234.303 324.035 233.74 324.349 233.096C324.663 232.452 324.845 231.742 324.882 231.016C324.915 230.572 324.853 230.126 324.7 229.712C324.547 229.299 324.308 228.929 324.001 228.631C322.751 227.492 320.739 227.861 319.273 228.586L318.009 229.211L320.433 210.101L321.947 210.324L319.885 226.58C321.877 225.949 323.723 226.221 324.987 227.372C325.473 227.829 325.854 228.401 326.1 229.043C326.347 229.686 326.452 230.381 326.409 231.074C326.364 232.05 326.122 233.004 325.7 233.868C325.277 234.733 324.685 235.487 323.964 236.079C321.544 237.986 318.399 238.081 315.872 238.157Z" fill="#2F2E41"/>
<path d="M337.664 211.726H329.434V213.374H337.664V211.726Z" fill="#2F2E41"/>
<path d="M311.687 211.726H303.457V213.374H311.687V211.726Z" fill="#2F2E41"/>
<path d="M295.314 286.16C298.379 284.063 301.691 282.419 305.162 281.274C304.831 280.004 304.836 278.659 305.178 277.392C305.638 275.792 306.567 274.395 307.824 273.411C309.081 272.426 310.6 271.906 312.153 271.929H322.117C323.673 271.908 325.194 272.429 326.454 273.414C327.713 274.4 328.644 275.798 329.108 277.401C329.449 278.665 329.454 280.007 329.123 281.274C332.594 282.421 335.906 284.064 338.972 286.16H295.314Z" fill="#2F2E41"/>
<path d="M364.804 202.971C364.059 201.998 363.143 201.194 362.107 200.606C361.199 200.095 360.19 199.826 359.166 199.823C357.759 199.842 356.393 200.338 355.262 201.241C352.152 203.614 349.997 208.731 349.997 214.656C349.997 222.089 353.389 228.253 357.798 229.325C358.247 229.433 358.706 229.489 359.166 229.49C364.216 229.49 368.334 222.839 368.334 214.656C368.334 209.91 366.951 205.682 364.804 202.971Z" fill="#3F3D56"/>
<path d="M280.82 200.886H280.812C279.791 200.202 278.614 199.835 277.412 199.823C276.388 199.826 275.379 200.095 274.47 200.606C273.435 201.194 272.519 201.998 271.773 202.971L271.766 202.979C269.626 205.691 268.243 209.918 268.243 214.656C268.243 221.051 270.749 226.506 274.264 228.591C275.226 229.173 276.309 229.482 277.412 229.49C277.657 229.49 277.902 229.473 278.146 229.44H278.153C282.86 228.83 286.581 222.436 286.581 214.656C286.581 208.426 284.189 203.078 280.82 200.886Z" fill="#3F3D56"/>
<path d="M274.837 227.173C275.019 227.173 275.198 227.126 275.36 227.037C275.522 226.947 275.662 226.817 275.768 226.658C275.874 226.498 275.944 226.314 275.971 226.12C275.998 225.926 275.981 225.728 275.923 225.542C273.733 218.516 273.074 211.041 273.998 203.696C274.922 196.352 277.403 189.336 281.25 183.194C285.096 177.052 290.204 171.949 296.176 168.282C302.149 164.616 308.824 162.483 315.685 162.052C322.545 161.62 329.406 162.9 335.733 165.793C342.06 168.686 347.683 173.113 352.166 178.731C356.649 184.349 359.87 191.006 361.579 198.185C363.289 205.364 363.44 212.871 362.022 220.124C361.96 220.445 362.018 220.779 362.184 221.054C362.35 221.328 362.61 221.521 362.907 221.588C363.205 221.656 363.515 221.593 363.77 221.414C364.024 221.236 364.203 220.955 364.265 220.634C365.757 213.009 365.599 205.116 363.802 197.567C362.005 190.019 358.619 183.02 353.906 177.113C349.193 171.206 343.281 166.551 336.628 163.509C329.976 160.467 322.763 159.121 315.55 159.575C308.337 160.029 301.318 162.271 295.039 166.127C288.76 169.983 283.39 175.348 279.346 181.806C275.302 188.265 272.694 195.642 271.724 203.364C270.753 211.086 271.447 218.946 273.751 226.332C273.828 226.577 273.974 226.79 274.169 226.941C274.364 227.092 274.597 227.173 274.837 227.173Z" fill="#3F3D56"/>
<path d="M338.506 190.764C340.126 193.148 339.327 196.36 337.621 198.416C335.401 201.09 331.861 201.259 328.787 200.762C325.338 200.205 321.68 198.463 318.188 199.637C315.212 200.638 313.088 203.55 309.996 204.281C307.254 204.93 303.975 204.071 303.014 200.919C302.552 199.404 304.764 198.755 305.224 200.262C305.846 202.301 308.531 202.26 310.069 201.696C312.535 200.79 314.435 198.588 316.858 197.536C319.715 196.296 322.815 196.856 325.724 197.562C328.465 198.228 331.621 199.215 334.352 197.972C336.373 197.051 337.981 194.152 336.527 192.012C335.654 190.727 337.643 189.492 338.506 190.764V190.764Z" fill="#2F2E41"/>
<path d="M498.063 342.321H352.662C351.858 342.321 351.062 342.15 350.319 341.818C349.576 341.487 348.901 341 348.332 340.387C347.764 339.774 347.313 339.046 347.005 338.244C346.697 337.443 346.539 336.584 346.539 335.717C346.539 334.85 346.697 333.991 347.005 333.19C347.313 332.389 347.764 331.66 348.332 331.047C348.901 330.434 349.576 329.947 350.319 329.616C351.062 329.284 351.858 329.113 352.662 329.113H498.063C499.685 329.115 501.241 329.812 502.388 331.05C503.535 332.288 504.179 333.967 504.179 335.717C504.179 337.467 503.535 339.146 502.388 340.384C501.241 341.623 499.685 342.319 498.063 342.321V342.321Z" fill="#E6E6E6"/>
<path d="M523.321 364.61H352.662C351.857 364.611 351.06 364.441 350.317 364.11C349.573 363.778 348.897 363.292 348.328 362.678C347.759 362.065 347.307 361.337 346.999 360.535C346.691 359.733 346.532 358.874 346.532 358.006C346.532 357.138 346.691 356.279 346.999 355.477C347.307 354.675 347.759 353.947 348.328 353.334C348.897 352.72 349.573 352.234 350.317 351.902C351.06 351.571 351.857 351.401 352.662 351.402H523.321C524.126 351.401 524.922 351.571 525.666 351.902C526.41 352.234 527.086 352.72 527.655 353.334C528.224 353.947 528.676 354.675 528.984 355.477C529.292 356.279 529.451 357.138 529.451 358.006C529.451 358.874 529.292 359.733 528.984 360.535C528.676 361.337 528.224 362.065 527.655 362.678C527.086 363.292 526.41 363.778 525.666 364.11C524.922 364.441 524.126 364.611 523.321 364.61Z" fill="#E6E6E6"/>
<path d="M498.063 422.431H352.662C351.038 422.431 349.481 421.736 348.332 420.497C347.184 419.259 346.539 417.579 346.539 415.827C346.539 414.076 347.184 412.396 348.332 411.157C349.481 409.919 351.038 409.223 352.662 409.223H498.063C499.687 409.223 501.244 409.919 502.392 411.157C503.541 412.396 504.186 414.076 504.186 415.827C504.186 417.579 503.541 419.259 502.392 420.497C501.244 421.736 499.687 422.431 498.063 422.431V422.431Z" fill="#E6E6E6"/>
<path d="M523.321 444.72H352.662C351.038 444.72 349.481 444.025 348.332 442.786C347.184 441.547 346.539 439.868 346.539 438.116C346.539 436.365 347.184 434.685 348.332 433.446C349.481 432.208 351.038 431.512 352.662 431.512H523.321C524.945 431.512 526.502 432.208 527.651 433.446C528.799 434.685 529.444 436.365 529.444 438.116C529.444 439.868 528.799 441.547 527.651 442.786C526.502 444.025 524.945 444.72 523.321 444.72Z" fill="#E6E6E6"/>
<path d="M295.115 374.632C309.462 374.632 321.093 362.088 321.093 346.614C321.093 331.14 309.462 318.595 295.115 318.595C280.768 318.595 269.137 331.14 269.137 346.614C269.137 362.088 280.768 374.632 295.115 374.632Z" fill="#E6E6E6"/>
<path d="M295.115 455.39C309.462 455.39 321.093 442.846 321.093 427.372C321.093 411.898 309.462 399.354 295.115 399.354C280.768 399.354 269.137 411.898 269.137 427.372C269.137 442.846 280.768 455.39 295.115 455.39Z" fill="#E6E6E6"/>
<path d="M498.063 503.19H352.662C351.038 503.19 349.481 502.494 348.332 501.255C347.184 500.017 346.539 498.337 346.539 496.586C346.539 494.834 347.184 493.154 348.332 491.916C349.481 490.677 351.038 489.981 352.662 489.981H498.063C499.687 489.981 501.244 490.677 502.392 491.916C503.541 493.154 504.186 494.834 504.186 496.586C504.186 498.337 503.541 500.017 502.392 501.255C501.244 502.494 499.687 503.19 498.063 503.19V503.19Z" fill="#E6E6E6"/>
<path d="M523.321 525.479H352.662C351.038 525.479 349.481 524.783 348.332 523.544C347.184 522.306 346.539 520.626 346.539 518.874C346.539 517.123 347.184 515.443 348.332 514.205C349.481 512.966 351.038 512.27 352.662 512.27H523.321C524.945 512.27 526.502 512.966 527.651 514.205C528.799 515.443 529.444 517.123 529.444 518.874C529.444 520.626 528.799 522.306 527.651 523.544C526.502 524.783 524.945 525.479 523.321 525.479V525.479Z" fill="#E6E6E6"/>
<path d="M295.115 536.148C309.462 536.148 321.093 523.604 321.093 508.13C321.093 492.656 309.462 480.112 295.115 480.112C280.768 480.112 269.137 492.656 269.137 508.13C269.137 523.604 280.768 536.148 295.115 536.148Z" fill="#E6E6E6"/>
</g>
<defs>
<clipPath id="clip0">
<rect width="576" height="580" fill="white"/>
</clipPath>
</defs>
</svg>
