<svg width="568" height="493" viewBox="0 0 568 493" fill="none" xmlns="http://www.w3.org/2000/svg">
<g clip-path="url(#clip0)">
<path d="M494.991 1.36661e-08H7.00998C5.15129 0.00241749 3.36923 1.05956 2.05496 2.93938C0.740695 4.8192 0.00163054 7.36808 0 10.0265V482.973C0.00163054 485.632 0.740695 488.181 2.05496 490.061C3.36923 491.94 5.15129 492.998 7.00998 493H494.991C496.005 493 497.006 492.686 497.927 492.078C498.847 491.471 499.664 490.585 500.322 489.482C500.377 489.395 500.428 489.303 500.474 489.206C500.893 488.474 501.231 487.656 501.479 486.779C501.832 485.574 502.012 484.28 502.009 482.973V10.0265C502.007 7.36621 501.267 4.81589 499.951 2.93585C498.635 1.05582 496.851 -0.000138707 494.991 1.36661e-08V1.36661e-08ZM500.008 482.973C500.009 484.372 499.721 485.74 499.18 486.906C498.699 487.932 498.047 488.77 497.282 489.344C496.574 489.867 495.788 490.139 494.991 490.137H7.00998C5.68215 490.135 4.40917 489.379 3.47025 488.036C2.53134 486.693 2.00315 484.873 2.00154 482.973V10.0265C2.00315 8.12734 2.53134 6.30664 3.47025 4.96374C4.40917 3.62083 5.68215 2.86538 7.00998 2.86308H494.991C496.32 2.86283 497.595 3.61709 498.536 4.96021C499.476 6.30333 500.006 8.12548 500.008 10.0265V482.973Z" fill="#3F3D56"/>
<path d="M501.004 40.1855H0.998962V43.0518H501.004V40.1855Z" fill="#3F3D56"/>
<path d="M18.0332 30.0963C21.3536 30.0963 24.0453 26.2464 24.0453 21.4974C24.0453 16.7483 21.3536 12.8984 18.0332 12.8984C14.7128 12.8984 12.0211 16.7483 12.0211 21.4974C12.0211 26.2464 14.7128 30.0963 18.0332 30.0963Z" fill="#3F3D56"/>
<path d="M35.318 30.0963C38.6384 30.0963 41.3301 26.2464 41.3301 21.4974C41.3301 16.7483 38.6384 12.8984 35.318 12.8984C31.9976 12.8984 29.3059 16.7483 29.3059 21.4974C29.3059 26.2464 31.9976 30.0963 35.318 30.0963Z" fill="#3F3D56"/>
<path d="M52.6027 30.0963C55.9231 30.0963 58.6148 26.2464 58.6148 21.4974C58.6148 16.7483 55.9231 12.8984 52.6027 12.8984C49.2823 12.8984 46.5906 16.7483 46.5906 21.4974C46.5906 26.2464 49.2823 30.0963 52.6027 30.0963Z" fill="#3F3D56"/>
<path d="M60.3357 220.475H42.6494C41.6903 220.473 40.7707 219.928 40.0925 218.958C39.4143 217.988 39.0328 216.673 39.0317 215.301V190.005C39.0328 188.633 39.4143 187.317 40.0925 186.347C40.7707 185.377 41.6903 184.832 42.6494 184.83H60.3357C61.2948 184.832 62.2144 185.377 62.8926 186.347C63.5708 187.317 63.9523 188.633 63.9533 190.005V215.301C63.9523 216.673 63.5708 217.988 62.8926 218.958C62.2144 219.928 61.2948 220.473 60.3357 220.475Z" fill="#6C63FF"/>
<path d="M60.3357 286.015H42.6494C41.6903 286.014 40.7707 285.468 40.0925 284.498C39.4143 283.528 39.0328 282.213 39.0317 280.841V255.545C39.0328 254.173 39.4143 252.858 40.0925 251.888C40.7707 250.918 41.6903 250.372 42.6494 250.371H60.3357C61.2948 250.372 62.2144 250.918 62.8926 251.888C63.5708 252.858 63.9523 254.173 63.9533 255.545V280.841C63.9523 282.213 63.5708 283.528 62.8926 284.498C62.2144 285.468 61.2948 286.014 60.3357 286.015V286.015Z" fill="#3F3D56"/>
<path d="M60.3357 351.555H42.6494C41.6903 351.554 40.7707 351.008 40.0925 350.038C39.4143 349.068 39.0328 347.753 39.0317 346.381V321.085C39.0328 319.713 39.4143 318.398 40.0925 317.428C40.7707 316.458 41.6903 315.912 42.6494 315.911H60.3357C61.2948 315.912 62.2144 316.458 62.8926 317.428C63.5708 318.398 63.9523 319.713 63.9533 321.085V346.381C63.9523 347.753 63.5708 349.068 62.8926 350.038C62.2144 351.008 61.2948 351.554 60.3357 351.555Z" fill="#CCCCCC"/>
<path d="M176.101 207.827H90.8848C89.9253 207.827 89.0052 207.282 88.3267 206.311C87.6483 205.341 87.2672 204.025 87.2672 202.653C87.2672 201.28 87.6483 199.964 88.3267 198.994C89.0052 198.024 89.9253 197.479 90.8848 197.479H176.101C177.06 197.479 177.98 198.024 178.659 198.994C179.337 199.964 179.718 201.28 179.718 202.653C179.718 204.025 179.337 205.341 178.659 206.311C177.98 207.282 177.06 207.827 176.101 207.827V207.827Z" fill="#CCCCCC"/>
<path d="M176.101 273.367H90.8848C89.9253 273.367 89.0052 272.822 88.3267 271.851C87.6483 270.881 87.2672 269.565 87.2672 268.193C87.2672 266.82 87.6483 265.504 88.3267 264.534C89.0052 263.564 89.9253 263.019 90.8848 263.019H176.101C177.06 263.019 177.98 263.564 178.659 264.534C179.337 265.504 179.718 266.82 179.718 268.193C179.718 269.565 179.337 270.881 178.659 271.851C177.98 272.822 177.06 273.367 176.101 273.367V273.367Z" fill="#CCCCCC"/>
<path d="M176.101 338.907H90.8848C89.9253 338.907 89.0052 338.362 88.3267 337.392C87.6483 336.421 87.2672 335.105 87.2672 333.733C87.2672 332.361 87.6483 331.045 88.3267 330.074C89.0052 329.104 89.9253 328.559 90.8848 328.559H176.101C177.06 328.559 177.98 329.104 178.659 330.074C179.337 331.045 179.718 332.361 179.718 333.733C179.718 335.105 179.337 336.421 178.659 337.392C177.98 338.362 177.06 338.907 176.101 338.907V338.907Z" fill="#CCCCCC"/>
<path d="M468.544 197.559C468.938 197.816 469.317 198.119 469.678 198.464L505.735 176.452L507.023 162.867L521.43 162.741L520.579 193.899L472.987 211.901C472.887 212.374 472.767 212.838 472.627 213.29C471.939 215.39 470.832 217.152 469.446 218.356C468.06 219.559 466.456 220.15 464.836 220.054C463.216 219.958 461.652 219.18 460.34 217.817C459.029 216.453 458.028 214.566 457.463 212.392C456.899 210.218 456.796 207.854 457.168 205.596C457.54 203.339 458.37 201.289 459.554 199.705C460.738 198.12 462.223 197.071 463.822 196.689C465.422 196.307 467.064 196.61 468.544 197.559V197.559Z" fill="#FFB8B8"/>
<path d="M526.67 479.91L516.814 479.909L512.125 425.536L526.672 425.537L526.67 479.91Z" fill="#FFB8B8"/>
<path d="M509.774 475.882H528.782V492.999H497.806C497.806 490.751 498.115 488.525 498.717 486.448C499.318 484.372 500.2 482.485 501.311 480.895C502.422 479.306 503.742 478.045 505.194 477.185C506.646 476.324 508.202 475.882 509.774 475.882V475.882Z" fill="#2F2E41"/>
<path d="M565.001 475.926L555.192 477.308L546.799 423.855L561.275 421.815L565.001 475.926Z" fill="#FFB8B8"/>
<path d="M547.911 474.287L566.827 471.622L568 488.657L537.173 493C537.019 490.763 537.175 488.504 537.631 486.353C538.087 484.202 538.835 482.201 539.832 480.463C540.829 478.725 542.056 477.286 543.442 476.226C544.828 475.166 546.347 474.508 547.911 474.287V474.287Z" fill="#2F2E41"/>
<path d="M529.413 105.197C540.318 105.197 549.159 92.5528 549.159 76.9558C549.159 61.3587 540.318 48.7148 529.413 48.7148C518.508 48.7148 509.668 61.3587 509.668 76.9558C509.668 92.5528 518.508 105.197 529.413 105.197Z" fill="#FFB8B8"/>
<path d="M514.611 468.914C513.764 468.917 512.944 468.492 512.294 467.715C511.645 466.937 511.209 465.856 511.062 464.663C505.961 424.159 489.285 291.723 488.887 288.054C488.878 287.97 488.874 287.885 488.874 287.799V277.925C488.873 277.565 488.952 277.214 489.099 276.922L491.302 272.509C491.406 272.297 491.544 272.122 491.703 271.997C491.862 271.873 492.039 271.802 492.221 271.791C504.78 270.948 545.91 268.48 547.897 272.031C549.893 275.599 549.188 286.412 549.026 288.543L549.034 288.765L567.512 457.784C567.657 459.132 567.425 460.507 566.866 461.612C566.307 462.717 565.466 463.463 564.526 463.688L552.985 466.408C552.125 466.605 551.244 466.355 550.503 465.702C549.762 465.05 549.209 464.038 548.945 462.852C545.375 446.537 533.405 391.657 529.257 370.421C529.231 370.286 529.172 370.17 529.09 370.093C529.009 370.017 528.911 369.985 528.814 370.005C528.717 370.024 528.629 370.094 528.566 370.199C528.502 370.305 528.468 370.441 528.469 370.58C528.676 390.823 529.177 442.471 529.35 460.309L529.369 462.231C529.376 463.531 529.042 464.789 528.433 465.755C527.824 466.72 526.984 467.324 526.078 467.446L514.949 468.893C514.836 468.907 514.723 468.914 514.611 468.914Z" fill="#2F2E41"/>
<path d="M516.882 116.301C513.436 119.231 511.374 124.615 510.191 130.094C508.001 140.236 506.682 150.723 506.265 161.322L505.014 193.058L489.534 277.19C502.951 293.427 510.69 289.737 528.75 276.456C546.81 263.175 548.874 280.884 548.874 280.884L552.486 209.298L557.646 131.072C556.487 129.077 555.176 127.275 553.737 125.698C548.968 120.393 543.419 116.707 537.509 114.915C531.598 113.123 525.481 113.274 519.617 115.355L516.882 116.301Z" fill="#B3B3B3"/>
<path d="M511.854 214.55C512.271 214.774 512.674 215.045 513.061 215.36L548.713 189.837L549.305 176.009L564.012 174.559L564.8 206.079L517.155 228.615C516.766 231.001 515.878 233.162 514.609 234.809C513.341 236.457 511.752 237.513 510.053 237.837C508.355 238.161 506.628 237.738 505.102 236.624C503.576 235.51 502.323 233.758 501.51 231.601C500.697 229.444 500.362 226.983 500.551 224.548C500.739 222.112 501.441 219.816 502.564 217.965C503.687 216.114 505.177 214.796 506.837 214.186C508.496 213.576 510.246 213.703 511.854 214.55H511.854Z" fill="#FFB8B8"/>
<path d="M557.387 131.431C566.159 135.859 567.705 183.832 567.705 183.832C557.385 175.714 545.001 188.999 545.001 188.999C545.001 188.999 542.421 176.452 539.325 160.216C538.39 155.649 538.278 150.818 539 146.173C539.721 141.527 541.253 137.219 543.452 133.648C543.452 133.648 548.615 127 557.387 131.431Z" fill="#B3B3B3"/>
<path d="M547.118 84.4244C544.658 81.6092 541.301 86.726 541.301 86.726L539.333 61.3913C539.333 61.3913 527.032 63.4988 519.16 60.6881C511.287 57.8773 510.057 70.8929 510.057 70.8929C509.651 65.6354 509.569 60.3369 509.811 55.0587C510.303 48.7251 516.7 42.3914 528.016 38.1686C539.333 33.9458 545.237 52.2436 545.237 52.2436C553.111 57.8729 549.578 87.2396 547.118 84.4244Z" fill="#2F2E41"/>
<path d="M472.549 270.492C472.676 267.449 472.748 264.383 472.748 261.294C472.748 221.04 461.568 182.435 441.667 153.971C421.766 125.507 394.774 109.517 366.63 109.517V270.492H472.549Z" fill="#6C63FF"/>
<path d="M358.591 284.29V123.314C337.877 123.313 317.615 131.983 300.305 148.255C282.994 164.527 269.392 187.689 261.175 214.886C252.958 242.082 250.486 272.124 254.064 301.306C257.641 330.487 267.112 357.534 281.308 379.109C295.504 400.685 313.805 415.846 333.954 422.723C354.102 429.6 375.217 427.893 394.696 417.812C414.174 407.731 431.163 389.716 443.569 365.99C455.975 342.264 463.254 313.863 464.51 284.29H358.591Z" fill="#3F3D56"/>
</g>
<defs>
<clipPath id="clip0">
<rect width="568" height="493" fill="white"/>
</clipPath>
</defs>
</svg>
