<svg width="499" height="379" viewBox="0 0 499 379" fill="none" xmlns="http://www.w3.org/2000/svg">
<path d="M433.597 227.045H13.6696C10.2825 227.041 7.03512 225.883 4.64003 223.822C2.24494 221.762 0.897699 218.969 0.893875 216.055V12.3889H446.373V216.055C446.369 218.969 445.022 221.762 442.627 223.822C440.232 225.883 436.984 227.041 433.597 227.045V227.045Z" fill="#E6E6E6"/>
<path d="M416.886 206.01H30.3808C28.6359 206.008 26.963 205.411 25.7292 204.35C24.4953 203.288 23.8013 201.849 23.7993 200.349V39.0843C23.8013 37.5834 24.4953 36.1445 25.7292 35.0832C26.963 34.0219 28.6359 33.4249 30.3808 33.4232H416.886C418.631 33.4249 420.304 34.0219 421.537 35.0832C422.771 36.1445 423.465 37.5834 423.467 39.0843V200.349C423.465 201.849 422.771 203.288 421.537 204.35C420.304 205.411 418.631 206.008 416.886 206.01V206.01Z" fill="white"/>
<path d="M121.804 144.264H53.0123C51.2674 144.263 49.5945 143.666 48.3607 142.604C47.1268 141.543 46.4328 140.104 46.4308 138.603V99.7036C46.4328 98.2027 47.1268 96.7637 48.3607 95.7024C49.5945 94.6411 51.2674 94.0441 53.0123 94.0424H121.804C123.549 94.0441 125.222 94.6411 126.456 95.7024C127.69 96.7637 128.384 98.2027 128.386 99.7036V138.603C128.384 140.104 127.69 141.543 126.456 142.604C125.222 143.666 123.549 144.263 121.804 144.264V144.264Z" fill="#E6E6E6"/>
<path d="M397.175 100.34H179.821C178.85 100.34 177.919 100.008 177.233 99.4177C176.546 98.8272 176.16 98.0263 176.16 97.1912C176.16 96.3561 176.546 95.5552 177.233 94.9647C177.919 94.3742 178.85 94.0424 179.821 94.0424H397.175C398.146 94.0424 399.077 94.3742 399.764 94.9647C400.45 95.5552 400.836 96.3561 400.836 97.1912C400.836 98.0263 400.45 98.8272 399.764 99.4177C399.077 100.008 398.146 100.34 397.175 100.34V100.34Z" fill="#E6E6E6"/>
<path d="M397.175 122.865H179.821C178.85 122.865 177.919 122.533 177.233 121.943C176.546 121.352 176.161 120.552 176.161 119.716C176.161 118.881 176.546 118.081 177.233 117.49C177.919 116.9 178.85 116.568 179.821 116.568H397.175C398.146 116.568 399.077 116.9 399.764 117.49C400.45 118.081 400.836 118.881 400.836 119.716C400.836 120.552 400.45 121.352 399.764 121.943C399.077 122.533 398.146 122.865 397.175 122.865V122.865Z" fill="#E6E6E6"/>
<path d="M397.175 145.39H179.821C178.85 145.39 177.919 145.059 177.233 144.468C176.546 143.878 176.16 143.077 176.16 142.242C176.16 141.407 176.546 140.606 177.233 140.015C177.919 139.425 178.85 139.093 179.821 139.093H397.175C398.146 139.093 399.077 139.425 399.764 140.015C400.45 140.606 400.836 141.407 400.836 142.242C400.836 143.077 400.45 143.878 399.764 144.468C399.077 145.059 398.146 145.39 397.175 145.39V145.39Z" fill="#E6E6E6"/>
<path d="M324.851 370.51H315.358L310.843 339.016H324.853L324.851 370.51Z" fill="#A0616A"/>
<path d="M308.578 368.177H326.885V378.092H297.051C297.051 376.79 297.349 375.501 297.929 374.298C298.508 373.095 299.357 372.002 300.427 371.081C301.498 370.16 302.768 369.43 304.167 368.932C305.565 368.433 307.064 368.177 308.578 368.177V368.177Z" fill="#2F2E41"/>
<path d="M364.34 370.51H354.847L350.331 339.016H364.341L364.34 370.51Z" fill="#A0616A"/>
<path d="M348.067 368.177H366.374V378.092H336.54C336.54 376.79 336.838 375.501 337.417 374.298C337.997 373.095 338.846 372.002 339.916 371.081C340.986 370.16 342.257 369.43 343.656 368.932C345.054 368.433 346.553 368.177 348.067 368.177V368.177Z" fill="#2F2E41"/>
<path d="M363.131 363.272H353.468C352.595 363.268 351.755 362.984 351.113 362.475C350.471 361.967 350.073 361.27 349.996 360.523L341.807 275.674C341.783 275.427 341.654 275.197 341.443 275.027C341.233 274.858 340.958 274.762 340.67 274.758C340.382 274.753 340.103 274.841 339.886 275.004C339.669 275.166 339.53 275.393 339.496 275.638L327.736 360.629C327.634 361.357 327.226 362.028 326.589 362.515C325.951 363.002 325.128 363.271 324.276 363.272H312.41C311.49 363.271 310.608 362.957 309.956 362.398C309.303 361.84 308.934 361.083 308.928 360.291C308.902 354.953 308.859 349.575 308.817 344.197C308.441 296.296 308.051 246.764 319.679 227.36L319.785 227.183L361.746 226.566L361.851 226.764C374.547 250.627 370.693 303.938 366.967 355.493L366.608 360.461C366.552 361.222 366.161 361.935 365.515 362.457C364.87 362.98 364.017 363.271 363.131 363.272V363.272Z" fill="#2F2E41"/>
<path d="M343.253 162.79C353.755 162.79 362.27 155.466 362.27 146.432C362.27 137.398 353.755 130.074 343.253 130.074C332.75 130.074 324.235 137.398 324.235 146.432C324.235 155.466 332.75 162.79 343.253 162.79Z" fill="#A0616A"/>
<path d="M317.325 230.19L317.849 211.435L314.077 196.801C313.124 193.178 313.18 189.412 314.239 185.81C315.299 182.209 317.333 178.873 320.175 176.076C322.94 173.293 326.43 171.111 330.362 169.709C334.294 168.306 338.555 167.723 342.799 168.007H342.799C343.073 168.025 343.348 168.045 343.623 168.066C347.249 168.347 350.772 169.253 353.982 170.73C357.192 172.207 360.023 174.224 362.307 176.663C364.639 179.115 366.373 181.945 367.406 184.986C368.439 188.027 368.75 191.215 368.319 194.361L363.755 228.672L317.325 230.19Z" fill="#6C63FF"/>
<path d="M301.171 263.803C302.068 263.201 302.801 262.436 303.317 261.564C303.834 260.691 304.122 259.732 304.161 258.753C304.199 257.775 303.989 256.801 303.543 255.9C303.097 254.999 302.426 254.194 301.579 253.54L312.286 231.594L298.155 233.877L290.154 254.367C288.971 255.664 288.382 257.289 288.5 258.934C288.617 260.58 289.432 262.131 290.79 263.294C292.148 264.457 293.954 265.151 295.868 265.245C297.781 265.339 299.668 264.826 301.171 263.803Z" fill="#A0616A"/>
<path d="M381.963 266.434C381.107 265.788 380.426 264.989 379.968 264.093C379.51 263.196 379.286 262.225 379.312 261.246C379.338 260.267 379.613 259.305 380.118 258.427C380.622 257.55 381.345 256.778 382.234 256.167L372.996 233.733L386.953 236.703L393.586 257.552C394.681 258.905 395.161 260.556 394.935 262.193C394.71 263.83 393.793 265.339 392.361 266.433C390.928 267.528 389.078 268.133 387.162 268.133C385.245 268.133 383.395 267.528 381.963 266.434V266.434Z" fill="#A0616A"/>
<path d="M302.871 253.049C302.38 253.049 301.895 252.96 301.447 252.788L293.3 249.649C292.517 249.348 291.89 248.808 291.541 248.134C291.191 247.46 291.144 246.698 291.408 245.996L305.072 209.485L310.353 181.979C310.541 181.002 310.955 180.067 311.571 179.23C312.188 178.393 312.993 177.672 313.941 177.108C314.888 176.545 315.957 176.151 317.085 175.95C318.212 175.749 319.375 175.745 320.505 175.939C321.634 176.133 322.707 176.52 323.659 177.077C324.611 177.635 325.422 178.351 326.046 179.184C326.669 180.017 327.092 180.949 327.288 181.926C327.484 182.902 327.45 183.902 327.187 184.866L319.161 214.365L306.204 250.926C305.986 251.541 305.545 252.079 304.945 252.461C304.345 252.843 303.617 253.05 302.871 253.049V253.049Z" fill="#6C63FF"/>
<path d="M380.58 253.049C379.833 253.05 379.106 252.844 378.506 252.461C377.906 252.079 377.464 251.541 377.247 250.926L364.296 214.386L356.263 184.866C356.001 183.902 355.967 182.902 356.163 181.925C356.359 180.949 356.781 180.017 357.404 179.184C358.028 178.351 358.84 177.635 359.792 177.077C360.744 176.52 361.816 176.133 362.946 175.939C364.075 175.745 365.238 175.749 366.366 175.95C367.494 176.151 368.563 176.544 369.51 177.108C370.457 177.672 371.263 178.393 371.879 179.23C372.495 180.067 372.91 181.002 373.097 181.979L378.392 209.533L392.043 245.996C392.306 246.698 392.259 247.46 391.91 248.134C391.56 248.808 390.934 249.348 390.15 249.649L382.004 252.788C381.556 252.96 381.071 253.049 380.58 253.049Z" fill="#6C63FF"/>
<path d="M343.643 128.35C338.358 126.381 331.454 128.831 329.321 133.434C327.993 136.298 328.398 139.528 329.13 142.547C329.862 145.565 330.906 148.577 330.794 151.659C330.681 154.741 329.138 158.012 325.96 159.438C324.061 160.29 321.839 160.385 319.78 160.893C317.721 161.401 315.596 162.589 315.3 164.413C314.851 167.174 318.744 169.276 318.718 172.063C318.69 175.016 314.4 176.77 313.844 179.684C313.748 180.537 313.906 181.397 314.303 182.184C314.699 182.97 315.322 183.657 316.112 184.18C317.705 185.209 319.515 185.963 321.442 186.399C336.268 190.475 352.055 191.249 367.323 188.648C370.357 188.127 373.479 187.423 375.837 185.7C378.194 183.977 379.542 180.96 378.187 178.568C376.156 174.982 369.706 174.778 367.459 171.288C366.11 169.195 366.731 166.625 367.015 164.245C367.748 158.097 369.439 150.915 367.664 144.927C366.06 139.517 362.577 132.526 357.598 128.943C354.026 126.372 347.206 127.543 342.641 128.336L343.643 128.35Z" fill="#2F2E41"/>
<path d="M498.226 379H227.225C227.019 379 226.823 378.93 226.677 378.805C226.532 378.68 226.451 378.511 226.451 378.334C226.451 378.157 226.532 377.988 226.677 377.863C226.823 377.738 227.019 377.668 227.225 377.668H498.226C498.431 377.668 498.628 377.738 498.773 377.863C498.918 377.988 499 378.157 499 378.334C499 378.511 498.918 378.68 498.773 378.805C498.628 378.93 498.431 379 498.226 379Z" fill="#CCCCCC"/>
<path d="M469.69 363.834C458.525 376.695 435.349 378.049 435.349 378.049C435.349 378.049 430.275 358.55 441.44 345.689C452.605 332.827 475.781 331.474 475.781 331.474C475.781 331.474 480.855 350.972 469.69 363.834Z" fill="#E6E6E6"/>
<path d="M412.814 368.669C420.181 377.156 435.474 378.049 435.474 378.049C435.474 378.049 438.823 365.182 431.455 356.695C424.088 348.209 408.795 347.315 408.795 347.315C408.795 347.315 405.446 360.182 412.814 368.669Z" fill="#E6E6E6"/>
</svg>
